<?xml version="1.0" standalone="no"?>
<!DOCTYPE svg PUBLIC "-//W3C//DTD SVG 20010904//EN"
 "http://www.w3.org/TR/2001/REC-SVG-20010904/DTD/svg10.dtd">
<svg version="1.0" xmlns="http://www.w3.org/2000/svg"
 width="512.000000pt" height="512.000000pt" viewBox="0 0 512.000000 512.000000"
 preserveAspectRatio="xMidYMid meet">
<metadata>
Created by potrace 1.14, written by Peter Selinger 2001-2017
</metadata>
<g transform="translate(0.000000,512.000000) scale(0.100000,-0.100000)"
fill="#000000" stroke="none">
<path d="M3033 3480 l0 -941 21 7 c11 4 33 13 49 21 15 7 27 11 27 9 0 -3 19
4 43 14 23 10 53 21 67 24 14 3 43 10 65 16 22 6 47 12 57 15 16 3 107 19 120
20 3 0 9 3 13 7 7 7 7 955 0 1020 -8 72 -53 215 -87 278 -51 90 -83 146 -94
160 -96 122 -255 290 -275 290 -3 0 -6 -423 -6 -940z"/>
<path d="M2048 4335 c-2 -2 -48 -6 -103 -10 -98 -6 -150 -12 -150 -15 0 -1 -9
-3 -20 -4 -159 -20 -425 -108 -595 -199 -75 -39 -241 -143 -250 -157 -3 -4
-12 -11 -21 -16 -76 -42 -305 -274 -379 -384 -13 -19 -27 -37 -30 -40 -11 -9
-97 -154 -124 -208 -34 -67 -96 -220 -102 -249 -2 -12 -9 -34 -14 -49 -9 -23
-18 -56 -36 -139 -22 -97 -32 -230 -29 -375 2 -91 6 -177 9 -192 8 -37 15 -76
22 -118 15 -97 77 -276 139 -403 128 -263 307 -478 550 -661 90 -68 244 -168
265 -171 3 -1 38 -17 78 -37 39 -20 72 -34 72 -31 0 3 6 1 13 -5 32 -27 326
-112 437 -127 14 -2 41 -6 60 -9 141 -23 414 -24 535 -2 11 2 42 7 68 10 56 9
58 9 152 31 126 29 277 85 423 157 78 38 142 74 142 79 0 5 5 9 11 9 10 0 109
65 152 99 71 57 176 151 222 199 94 99 235 286 235 311 0 5 4 11 8 13 5 2 29
42 54 90 l46 87 -53 -4 c-30 -2 -62 -6 -72 -9 -10 -2 -36 -7 -57 -11 -31 -4
-47 -15 -74 -48 -43 -51 -194 -201 -242 -240 -69 -56 -227 -156 -315 -200 -82
-41 -294 -119 -355 -131 -14 -3 -60 -12 -103 -20 -44 -9 -83 -14 -88 -10 -5 3
-9 2 -9 -3 0 -4 -17 -9 -38 -10 -94 -5 -302 -5 -352 1 -109 12 -146 17 -185
28 -22 6 -47 11 -55 12 -26 4 -71 17 -165 48 -382 126 -707 394 -915 752 -22
37 -40 74 -40 80 0 7 -4 16 -9 22 -15 14 -76 181 -94 254 -35 143 -42 202 -42
375 0 214 19 328 87 515 29 80 103 239 117 250 3 3 12 17 20 32 25 49 138 192
208 263 84 86 119 117 208 183 39 28 76 56 83 62 6 6 12 7 12 3 0 -4 4 -3 8 3
16 25 290 156 372 179 3 0 31 9 64 19 32 9 71 19 87 21 16 2 32 6 36 8 14 9
96 21 213 33 60 5 216 6 319 1 69 -3 64 20 -6 28 -32 4 -67 9 -78 11 -60 12
-319 26 -327 19z"/>
<path d="M2841 3628 c-151 -154 -213 -261 -269 -458 -7 -25 -9 -911 -2 -915 4
-2 38 18 76 46 37 28 102 71 144 96 41 25 90 56 107 67 l33 21 2 608 c2 457 0
607 -9 607 -6 0 -43 -33 -82 -72z"/>
<path d="M3510 2434 c-58 -7 -118 -16 -135 -19 -246 -49 -495 -172 -794 -392
-389 -287 -525 -357 -711 -368 -50 -2 -159 20 -222 46 -68 28 -197 114 -268
179 -57 51 -82 60 -105 36 -11 -11 -11 -17 0 -40 29 -55 94 -127 206 -226 138
-122 350 -225 539 -261 75 -14 266 -19 325 -8 22 4 54 10 70 13 192 33 380
121 661 308 104 70 227 146 274 170 230 119 503 200 677 202 24 1 43 3 43 6 0
12 288 0 360 -15 14 -3 39 -8 55 -11 114 -19 248 -66 378 -131 91 -45 121 -48
130 -13 7 27 -78 125 -163 189 -19 14 -41 32 -49 39 -41 39 -279 172 -308 172
-7 0 -13 5 -13 12 0 6 -3 9 -6 5 -4 -3 -20 1 -36 9 -17 9 -32 13 -36 10 -3 -3
-10 -2 -16 3 -12 10 -178 56 -236 65 -19 3 -46 8 -60 10 -132 23 -411 28 -560
10z"/>
</g>
</svg>
